# xmcd
# 
# Track frame offsets:
#     150
#     12283
#     30223
#     42670
#     57225
#     73165
#     85403
#     98243
#     120095
#     132618
#     154975
#     173638
#     180520
#     192013
#     205458
#     212728
#     224073
#     233860
#     252263
#     261653
#     278573
#     288988
#     297133
#     306825
#     315428
# 
# Disc length: 4326
# 
# Revision: 23
# Processed by: cddbd v1.5.2PL0 Copyright (c) Steve Scherf et al.
# Submitted via: fre:ac v1.0.27
# 
DISCID=7810e419
DTITLE=Various Artist - Classic Disney, Vol. 1: 60 Years of Musical Magic
DYEAR=1995
DGENRE=Soundtrack
TTITLE0=Brad Kane and Lea Salonga - Whole New World, A [Aladdin]
TTITLE1=Carmen Twillie - Circle Of Life [The Lion King]
TTITLE2=Angela Lansbury - Beauty And The Beast [Beauty And The Beast]
TTITLE3=Samuel E. Wright - Under The Sea [The Little Mermaid]
TTITLE4=Nathan Lane, Ernie Sabella and Jason Weaver - Hakuna Matata [The Lion King]
TTITLE5=Samuel E. Wright - Kiss The Girl [The Little Mermaid]
TTITLE6=Jason Weaver, Rowan Atkinson and Laura Williams - I Just Can't Wait To Be King [The Lion King]
TTITLE7=Pat Carroll - Poor Unfortunate Souls [The Little Mermaid]
TTITLE8=Dick Van Dyke, Julie Andrews, Karen Dotrice and Matthew Garber - Chim Chim Cher-ee [Mary Poppins]
TTITLE9=Dick Van Dyke and Julie Andrews - Jolly Holiday [Mary Poppins]
TTITLE10=Julie Andrews - Spoonful Of Sugar, A [Mary Poppins]
TTITLE11=Hayley Mills - Let's Get Together [The Parent Trap]
TTITLE12=Annette Funicello and The Beach Boys - Monkey's Uncle, The [The Monkey's Uncle]
TTITLE13=Burl Ives - Ugly Bug Ball, The [Summer Magic]
TTITLE14=Paul Frees - The Spectrum Song [Walt Disney's Wonderful World Of Color]
TTITLE15=J. Pat O'Malley and The Pachyderm Chorus - Colonel Hathi's March [The Jungle Book]
TTITLE16=Kirk Douglas - Whale Of A Tale, A [20,000 Leagues Under The Sea]
TTITLE17=Bobby Driscoll, Kathryn Beaumont, Paul Collins and Tommy Luske - You Can Fly! You Can Fly! You Can Fly! [Peter Pan]
TTITLE18=The Mouse Chorus - The Work Song [Cinderella]
TTITLE19=Ilene Woods - Dream Is A Wish Your Heart Makes, A [Cinderella]
TTITLE20=James Baskett - Zip-A-Dee-Doo-Dah [Song Of The South]
TTITLE21=Fantasia Cast - Dance Of The Reed Flutes [Fantasia]
TTITLE22=Donald Novis - Love Is A Song [Bambi]
TTITLE23=Adriana Caselotti - Some Day My Prince Will Come [Snow White And The Seven Dwarfs]
TTITLE24=Disney Chorus - Minnie's Yoo Hoo! [Mickey Mouse Theme Song]
EXTD=LABEL =Walt Disney Company\nID =60865-7\nUPC =05008-60865-73\nCOPYRIGHT =1995\n*****\n YEAR
EXTT0=
EXTT1=
EXTT2=
EXTT3=
EXTT4=
EXTT5=
EXTT6=
EXTT7=
EXTT8=
EXTT9=
EXTT10=
EXTT11=
EXTT12=
EXTT13=
EXTT14=
EXTT15=
EXTT16=
EXTT17=
EXTT18=
EXTT19=
EXTT20=
EXTT21=
EXTT22=
EXTT23=
EXTT24=
PLAYORDER=
